<svg width="1195" height="517" viewBox="0 0 1095 510" fill="none" xmlns="http://www.w3.org/2000/svg">
<ellipse cx="134" cy="167.5" rx="165" ry="167.5" fill="#FD73BE"/>
<ellipse cx="134" cy="167.5" rx="165" ry="167.5" fill="url(#paint0_linear)"/>
<path d="M68.7812 156.812H48.1094V145.844H138.812V156.812H110.688L163.703 312.766L218.828 145.844H229.094L290.266 312.062L341.031 156.812H314.172V145.844H377.453V156.812H355.656L285.906 363.812H272.969L211.797 208L159.484 363.812H146.828L68.7812 156.812ZM410.359 344.688C406.516 349 404.594 354.438 404.594 361H392.078V303.625H406.562C410.219 318.062 417.812 329.781 429.344 338.781C440.969 347.688 454.984 352.141 471.391 352.141C491.922 352.141 505.656 346.469 512.594 335.125C514.844 331.281 515.969 326.969 515.969 322.188C515.969 311.969 512.359 303.203 505.141 295.891C497.922 288.578 485.547 281.734 468.016 275.359C450.578 268.891 437.359 262.984 428.359 257.641C419.453 252.297 412.422 246.672 407.266 240.766C398.172 230.359 393.625 216.719 393.625 199.844C393.625 182.969 400.844 169.281 415.281 158.781C429.812 148.281 447.438 143.031 468.156 143.031C479.875 143.031 489.812 144.391 497.969 147.109C506.219 149.828 512.5 153.016 516.812 156.672C519.062 153.391 520.281 149.781 520.469 145.844H533.547V198.156H520.047C518.641 184.281 512.828 173.594 502.609 166.094C492.484 158.5 480.719 154.703 467.312 154.703C454 154.703 443.125 157.469 434.688 163C426.25 168.438 422.031 175.891 422.031 185.359C422.031 194.828 425.969 203.125 433.844 210.25C441.719 217.375 457.797 226.281 482.078 236.969C504.859 246.25 520.75 255.672 529.75 265.234C538.75 274.703 543.25 286.422 543.25 300.391C543.25 320.078 536.312 335.594 522.438 346.938C508.656 358.188 491.922 363.812 472.234 363.812C452.641 363.812 435.578 359.875 421.047 352C416.734 349.656 413.172 347.219 410.359 344.688ZM666.859 345.109C655.984 357.578 641.406 363.812 623.125 363.812C609.25 363.812 597.297 359.969 587.266 352.281C577.234 344.5 572.219 334.375 572.219 321.906C572.219 309.344 577.141 299.5 586.984 292.375C596.828 285.156 609.484 281.547 624.953 281.547C640.516 281.547 653.5 285.438 663.906 293.219V259.75C663.906 248.406 662.5 240.719 659.688 236.688C656.875 232.656 653.547 229.844 649.703 228.25C645.953 226.656 641.781 225.859 637.188 225.859C629.969 225.859 623.875 226.703 618.906 228.391C613.938 229.984 610.609 231.625 608.922 233.312C613.234 234.625 616.562 237.906 618.906 243.156C619.656 245.031 620.031 247.281 620.031 249.906C620.031 255.062 618.156 259.375 614.406 262.844C610.656 266.219 606.906 267.906 603.156 267.906C596.594 267.906 591.484 266.172 587.828 262.703C584.172 259.234 582.344 255.062 582.344 250.188C582.344 245.312 583.234 241.328 585.016 238.234C586.797 235.047 589.188 232.188 592.188 229.656C597.906 224.875 605.078 221.219 613.703 218.688C622.422 216.156 630.578 214.891 638.172 214.891C659.266 214.891 674.875 219.156 685 227.688C695.125 236.219 700.188 248.125 700.188 263.406V338.359C700.188 346.141 702.109 350.031 705.953 350.031C709.797 350.031 713.5 347.688 717.062 343L724.375 349.047C718 358.703 707.594 363.531 693.156 363.531C688.094 363.531 682.938 361.938 677.688 358.75C672.531 355.562 668.922 351.016 666.859 345.109ZM664.328 305.734C656.359 297.953 647.641 294.062 638.172 294.062C628.703 294.062 621.578 296.312 616.797 300.812C612.016 305.219 609.625 312.344 609.625 322.188C609.625 336.719 614.734 345.531 624.953 348.625C627.859 349.562 630.812 350.031 633.812 350.031C642.344 350.031 650.5 346.75 658.281 340.188C660.531 338.219 662.547 336.109 664.328 333.859V305.734ZM824.078 342.719C868.516 342.719 890.734 357.297 890.734 386.453C890.734 403.891 883.281 417.109 868.375 426.109C853.469 435.203 835.188 439.75 813.531 439.75C780.719 439.75 758.688 433.234 747.438 420.203C743.312 415.516 741.25 410.5 741.25 405.156C741.25 396.344 744.062 388.938 749.688 382.938C755.312 376.938 762.484 372.672 771.203 370.141C763.609 368.828 757.281 365.641 752.219 360.578C747.156 355.516 744.625 350.406 744.625 345.25C744.625 336.812 746.969 329.641 751.656 323.734C756.438 317.734 762.391 312.906 769.516 309.25C754.984 299.406 747.719 286.328 747.719 270.016C747.719 253.703 753.859 240.438 766.141 230.219C778.516 220 792.766 214.891 808.891 214.891C825.109 214.891 838.797 218.406 849.953 225.438C855.297 224.5 859.516 222.766 862.609 220.234C856.609 216.766 853.609 212.312 853.609 206.875C853.609 201.344 854.828 197.312 857.266 194.781C861.672 190.094 866.312 187.75 871.188 187.75C876.062 187.75 880.188 189.391 883.562 192.672C887.031 195.953 888.766 200.547 888.766 206.453C888.766 212.359 885.531 217.984 879.062 223.328C872.688 228.578 866.266 231.859 859.797 233.172C870.203 243.391 875.406 255.719 875.406 270.156C875.406 284.594 869.172 296.688 856.703 306.438C844.328 316.094 829.047 320.922 810.859 320.922C798.766 320.922 787.938 318.719 778.375 314.312C768.438 318.531 763.469 324.016 763.469 330.766C763.469 338.734 770.5 342.719 784.562 342.719H824.078ZM810.719 309.25C830.969 309.25 841.094 295.469 841.094 267.906C841.094 240.344 831.203 226.562 811.422 226.562C795.672 226.562 786.344 235.188 783.438 252.438C782.5 257.594 782.031 263.078 782.031 268.891C782.031 288.578 786.812 301 796.375 306.156C800.125 308.219 804.906 309.25 810.719 309.25ZM768.672 400.938C768.672 419.031 784.094 428.078 814.938 428.078C830.688 428.078 842.875 425.266 851.5 419.641C860.219 414.016 864.578 406.984 864.578 398.547C864.578 386.922 859 378.859 847.844 374.359C843.812 372.766 838.891 371.969 833.078 371.969H790.188C783.812 373.656 778.609 377.125 774.578 382.375C770.641 387.625 768.672 393.812 768.672 400.938ZM1002.95 345.109C992.078 357.578 977.5 363.812 959.219 363.812C945.344 363.812 933.391 359.969 923.359 352.281C913.328 344.5 908.312 334.375 908.312 321.906C908.312 309.344 913.234 299.5 923.078 292.375C932.922 285.156 945.578 281.547 961.047 281.547C976.609 281.547 989.594 285.438 1000 293.219V259.75C1000 248.406 998.594 240.719 995.781 236.688C992.969 232.656 989.641 229.844 985.797 228.25C982.047 226.656 977.875 225.859 973.281 225.859C966.062 225.859 959.969 226.703 955 228.391C950.031 229.984 946.703 231.625 945.016 233.312C949.328 234.625 952.656 237.906 955 243.156C955.75 245.031 956.125 247.281 956.125 249.906C956.125 255.062 954.25 259.375 950.5 262.844C946.75 266.219 943 267.906 939.25 267.906C932.688 267.906 927.578 266.172 923.922 262.703C920.266 259.234 918.438 255.062 918.438 250.188C918.438 245.312 919.328 241.328 921.109 238.234C922.891 235.047 925.281 232.188 928.281 229.656C934 224.875 941.172 221.219 949.797 218.688C958.516 216.156 966.672 214.891 974.266 214.891C995.359 214.891 1010.97 219.156 1021.09 227.688C1031.22 236.219 1036.28 248.125 1036.28 263.406V338.359C1036.28 346.141 1038.2 350.031 1042.05 350.031C1045.89 350.031 1049.59 347.688 1053.16 343L1060.47 349.047C1054.09 358.703 1043.69 363.531 1029.25 363.531C1024.19 363.531 1019.03 361.938 1013.78 358.75C1008.62 355.562 1005.02 351.016 1002.95 345.109ZM1000.42 305.734C992.453 297.953 983.734 294.062 974.266 294.062C964.797 294.062 957.672 296.312 952.891 300.812C948.109 305.219 945.719 312.344 945.719 322.188C945.719 336.719 950.828 345.531 961.047 348.625C963.953 349.562 966.906 350.031 969.906 350.031C978.438 350.031 986.594 346.75 994.375 340.188C996.625 338.219 998.641 336.109 1000.42 333.859V305.734Z" fill="black"/>
<defs>
<linearGradient id="paint0_linear" x1="134" y1="0" x2="134" y2="335" gradientUnits="userSpaceOnUse">
<stop stop-color="#FF86C7"/>
<stop offset="1" stop-color="#FBC384"/>
</linearGradient>
</defs>
</svg>
